<?xml version="1.0" standalone="no"?><!DOCTYPE svg PUBLIC "-//W3C//DTD SVG 1.1//EN" "http://www.w3.org/Graphics/SVG/1.1/DTD/svg11.dtd"><svg class="icon" width="200px" height="199.80px" viewBox="0 0 1025 1024" version="1.1" xmlns="http://www.w3.org/2000/svg"><path fill="currentColor" d="M512.03 811.91c-17.97 0-35.91-9.3-54.51-27.9-7.32-7.32-7.32-19.2 0-26.52s19.2-7.32 26.52 0C495.47 768.95 504.65 774.5 512.03 774.5s16.56-5.55 27.99-17.01c7.32-7.32 19.2-7.32 26.52 0s7.32 19.2 0 26.52c-18.6 18.6-36.54 27.9-54.51 27.9z m-480-287.25c0 46.77 3.99 89.19 12 127.2s19.26 71.01 33.75 98.94 32.82 52.41 54.99 73.44 46.26 38.37 72.24 51.99c26.01 13.62 55.74 24.66 89.25 33.06S361.85 923.6 396.5 926.96 469.34 932 511.01 932c41.67 0 79.92-1.68 114.75-5.04s69-9.24 102.51-17.67c33.51-8.4 63.33-19.44 89.49-33.06s50.43-30.96 72.75-51.99c22.32-21.03 40.74-45.51 55.26-73.44s25.83-60.9 33.99-98.94c8.16-38.04 12.24-80.43 12.24-127.2 0-83.79-26.01-155.97-78-216.54 3-8.07 5.58-17.34 7.74-27.75s4.26-25.14 6.24-44.16c2.01-19.02 1.26-40.98-2.25-65.88S915.65 120.02 905.99 94.1l-7.5-1.53c-5.01-1.02-13.17-0.66-24.51 1.02s-24.57 4.71-39.75 9.09-34.74 13.05-58.74 26.01-49.32 29.37-75.99 49.23c-45.33-13.8-107.82-28.23-187.5-28.23s-142.32 14.43-188.01 28.23c-26.67-19.86-52.08-36.18-76.26-48.96s-43.5-21.54-57.99-26.25c-14.49-4.71-27.93-7.74-40.26-9.09s-20.25-1.77-23.76-1.26c-3.51 0.51-6.09 1.08-7.74 1.77-9.66 25.92-16.32 51.33-20.01 76.23s-4.5 46.77-2.49 65.61c2.01 18.84 4.17 33.66 6.51 44.43S107 300.41 110 308.15C58.01 368.39 32 440.57 32 524.69z m128.01 106.77c0-54.39 20.01-103.71 60-147.99 12-13.5 25.92-23.73 41.76-30.66s33.84-10.89 54-11.82 39.42-0.75 57.75 0.57 41.01 3.09 68.01 5.34 50.34 3.39 69.99 3.39c19.65 0 42.99-1.11 69.99-3.39s49.68-4.02 68.01-5.34c18.33-1.32 37.59-1.5 57.75-0.57s38.25 4.89 54.24 11.82c15.99 6.93 30 17.16 42 30.66 39.99 44.28 60 93.6 60 147.99 0 31.89-3.33 60.3-9.99 85.26s-15.09 45.87-25.26 62.73c-10.17 16.89-24.42 31.14-42.75 42.78s-36.09 20.64-53.25 27c-17.16 6.36-39.33 11.34-66.51 14.91s-51.51 5.73-72.99 6.48c-21.51 0.75-48.57 1.14-81.24 1.14s-59.67-0.39-81-1.14c-21.33-0.75-45.57-2.91-72.75-6.48s-49.32-8.55-66.51-14.91c-17.16-6.39-34.92-15.39-53.25-27s-32.58-25.89-42.75-42.78c-10.17-16.89-18.6-37.8-25.26-62.73s-9.99-53.37-9.99-85.26zM272.03 602c0-49.71 26.85-90 60-90s60 40.29 60 90-26.85 90-60 90-60-40.29-60-90z m360 0c0-49.71 26.85-90 60-90s60 40.29 60 90-26.85 90-60 90-60-40.29-60-90z"  /></svg>