<?xml version="1.0" standalone="no"?><!DOCTYPE svg PUBLIC "-//W3C//DTD SVG 1.1//EN" "http://www.w3.org/Graphics/SVG/1.1/DTD/svg11.dtd"><svg class="icon" width="200px" height="200.00px" viewBox="0 0 1024 1024" version="1.1" xmlns="http://www.w3.org/2000/svg"><path fill="currentColor" d="M333.09407393 119.2003455l-29.81588819 11.43861681-37.26986045 45.76172782h163.98738633l41.00047646-41.95127461 59.63177725 64.82850997h-201.26450654c37.26986045 17.81840479 58.98581455 33.07473369 65.22044238 45.76172783 6.16930488 12.75957422 9.3192794 21.63611602 9.3192794 26.6949457 0 5.13141065-2.51126982 12.75957422-7.45397227 22.88449249-5.01528252 10.19024033-12.46925391 16.57002744-22.36191592 19.06678212-9.96524209 2.56933388-16.19261104-5.05883057-18.63855967-22.88449336a483.23803799 483.23803799 0 0 0-16.77325166-43.85287178c-6.23462695-13.93537148-16.77325166-29.84492021-31.68119618-47.670583h-55.90842013c-17.41195635 15.25632891-37.26986045 35.64406758-59.63177724 61.01805586-24.8586706 28.02316113-53.45521435 54.71810684-85.70979317 80.09209599L98.29032295 328.94945967c32.25457881-35.5714875 63.935775-77.52276211 95.0435877-125.84656494 31.03523349-48.25848164 54.04311299-95.3411669 68.95105751-141.10289473l70.80910577 57.20034551zM246.28106445 443.3646667c0 274.57762412 1.21934531 438.56501133 3.73061514 491.9403876L184.01463125 961.99274199c2.43868974-116.89018594 3.73061513-234.52794756 3.73061513-352.74634892 0-118.22565938-1.28466738-197.65001865-3.73061513-238.3456588l81.99369404 38.13356427-19.72726084 34.33036816zM254.82373789 286.99818594c57.12776542 30.50539893 90.02830605 52.80199365 98.76694482 66.73736425 8.67331758 14.00795156 13.04263653 26.10704795 13.0426374 36.23196622 0 7.62816445-2.51126982 16.57002744-7.45397226 26.6949457-5.01528252 10.19024033-12.46925391 17.81840479-22.3619168 22.88449336-9.95798408 5.13141065-16.19261104-1.24837734-18.63130078-19.06678213-5.01528252-15.25632891-12.46925391-33.00215362-22.3619168-53.38989141-9.95798408-20.31515859-26.08527393-41.95127461-48.45444785-64.82850995L254.82373789 286.99818594z m118.18211133 569.86959726c2.64917197-90.97910508 4.04270948-176.39857705 4.04270947-256.39631895 0-79.92516182-1.3935375-137.8222752-4.04270947-173.69134188l56.58341484 37.21905526h169.75024365l24.24899795-41.35611796 85.9057585 54.95036309-40.41983496 33.08199081c0 162.70997783 2.64917197 260.53338252 8.08541895 293.62263223l-81.86304991 27.75461485V790.70380068H429.58926406v41.35611797l-56.58341484 24.80786455z m276.89292773-1.64756689c44.72383271 5.06608857 76.40502891 8.21606309 95.04358858 9.53701963 18.63855967 1.24837734 16.04019287 0.58789863 26.00543583-1.90885606 9.89266201-2.56207588 14.90794453-11.43861768 14.90794366-26.6949457V367.08302393H523.17399307c-19.92322617 0-43.50448828 3.81771123-70.81636465 11.43861679l-33.53924532-34.32311015H798.9782205l33.54650333-34.32311016 52.17780498 53.38989228-33.54650332 22.88449249v476.6985747c0 17.75308271-3.73061513 33.66263144-11.18458741 47.67058389-7.45397227 13.93537148-57.0987334 38.71420401-89.35331133 51.47377822-9.95798408-38.12630537-53.46247237-64.82125107-130.44814188-80.07757998L649.89877695 855.22021631zM429.58926406 488.80704219v124.06109589h165.70753419V488.80704219H429.58926406z m0 148.88347646v128.19815947h165.70753419V637.69051865H429.58926406zM679.71466602 115.38989229l-33.53924532 15.25632802-33.54650419 45.76172784h212.0281286l41.41418203-41.95127461L925.7030044 199.28518349H679.71466602c44.72383271 22.88449248 68.95105664 38.79404209 72.67441377 47.67058302 3.73061513 8.94186299 5.58866425 15.91680674 5.58866425 20.9756373 0 5.13141065-1.28466738 10.85071904-3.72335625 17.16518408-2.51126982 6.37978711-6.88058965 12.09909638-13.0426374 17.15792607-6.23462695 5.13141065-10.60394678 7.62816445-13.04989453 7.62816446-5.01528252 0-9.3192794-4.40560987-13.04263653-13.34747285-3.72335713-8.87654092-8.09993496-22.22401465-13.0426374-40.04241943-5.01528252-15.25632891-17.41195635-34.32311016-37.26986045-57.20760265h-63.36239238a1278.36711035 1278.36711035 0 0 1-119.27081162 114.40794815l-11.1845874-11.43861768c37.26986045-43.19965195 67.66639013-87.05252373 91.31297344-131.56587422C585.88316474 126.24061133 602.65641641 91.26428047 612.61440049 65.81771123l67.10026553 49.57218106z"  /></svg>