<svg t="1579012686389" class="icon" viewBox="0 0 1024 1024" version="1.1" xmlns="http://www.w3.org/2000/svg" p-id="1104" width="200" height="200"><path d="M544.1763552 434.26702187A136.53333333 136.53333333 0 0 1 739.5555552 557.51111147v136.53333333a45.51111147 45.51111147 0 0 1-91.02222187 0v-136.53333333a45.51111147 45.51111147 0 0 0-91.02222186 0v136.53333333a45.51111147 45.51111147 0 0 1-91.02222294 0v-227.55555627a45.51111147 45.51111147 0 0 1 77.68746667-32.22186666zM193.42222187 830.57777813h500.62222293a45.51111147 45.51111147 0 0 1 0 91.02222187H147.91111147a45.51111147 45.51111147 0 0 1-45.51111147-45.51111147V147.91111147a45.51111147 45.51111147 0 0 1 45.51111147-45.51111147h728.17777706a45.51111147 45.51111147 0 0 1 45.51111147 45.51111147v728.17777706a45.51111147 45.51111147 0 0 1-91.02222187 0V193.42222187H193.42222187v637.15555626z m91.02222293-364.0888896a45.51111147 45.51111147 0 0 1 91.02222187 0v227.55555627a45.51111147 45.51111147 0 0 1-91.02222187 0v-227.55555627z m45.5111104-91.02222186a45.51111147 45.51111147 0 1 1 0-91.02222187 45.51111147 45.51111147 0 0 1 0 91.02222187z" p-id="1105" fill="currentColor"></path></svg>