<svg t="1590883144169" class="icon" viewBox="0 0 1024 1024" version="1.1" xmlns="http://www.w3.org/2000/svg" p-id="2562" width="200" height="200"><path d="M848.1666667 736.76315762c-18.04386006 4.84210547-33.28947334-18.39473701-51.58771963-53.14912295A297.52280683 297.52280683 0 0 1 738.32456182 777.78947393c41.99122792 26.84210537 65.47368427 64.69298261 56.35964883 98.64912216-12.99122842 48.42105293-84.96491221 57.85087676-166.01754375 49.54386006-45.11403545-4.6315793-82.38596484-22.87719317-103.51754385-49.32456152-3.92982451 0.15789463-7.86842138 0.25438623-11.8333336 0.25438623-4.6315793 0-9.23684239-0.12280693-13.81578926-0.32456162-21.08771894 26.52631612-58.3684207 44.84210537-103.52631621 49.47368467-80.95613994 8.30701758-152.85964922-1.12280713-165.84210527-49.55263154-9.34210547-34.88596523 15.64035117-73.86842109 59.72807022-100.82456192a296.48245605 296.48245605 0 0 1-58.11403448-102.55263135c-20.77192969 40.32456152-37.18421016 68.74561406-56.98245674 63.44736856-30.0701751-8.06140371-28.87719258-76.49122763-7.06140351-157.91228086 15.10526338-56.37719268 45.4649124-101.2017542 72.69298242-120.77192989 0.03508769-1.20175401 0.06140391-2.39473653 0.11403545-3.60526289 1.03508789-25.5701751 10.67543877-49.21052607 27.19298233-70.10526357V341.82456172c0-136.61403487 110.75438584-247.3684207 247.3684207-247.36842159s247.3684207 110.75438584 247.36842158 247.36842159v38.65789424c19.21052636 22.11403535 30.44736826 47.18421036 31.57894687 73.80701806q0.26315771 6.35526299 0.42105323 12.56140283c0.19298232 0.48245625 0.3684208 0.9649125 0.56140312 1.44736875 23.57017558 22.84210547 47.40350888 62.43859687 60.22807031 110.37719268 21.81578906 81.51754395 23.00877158 150.02631563-7.06140351 158.08771934z" fill="currentColor" p-id="2563"></path></svg>