<?xml version="1.0" standalone="no"?><!DOCTYPE svg PUBLIC "-//W3C//DTD SVG 1.1//EN" "http://www.w3.org/Graphics/SVG/1.1/DTD/svg11.dtd"><svg class="icon" width="200px" height="200.00px" viewBox="0 0 1024 1024" version="1.1" xmlns="http://www.w3.org/2000/svg"><path fill="currentColor" d="M256.01536 570.29831112c0-35.347773 28.650947-63.99872 63.99872-63.99872s63.99872 28.650947 63.99872 63.99872c0 35.347773-28.650947 63.99872-63.99872 63.99872s-63.99872-28.650947-63.99872-63.99872zM640.00768 570.29831112c0-35.347773 28.650947-63.99872 63.99872-63.99872s63.99872 28.650947 63.99872 63.99872c0 35.347773-28.650947 63.99872-63.99872 63.99872s-63.99872-28.650947-63.99872-63.99872zM643.12057799 707.08149612c16.48607001-12.98406 40.365273-10.157877 53.36981301 6.328193s10.157877 40.385752-6.32819301 53.369813c-45.89476199 36.166957-115.812084 59.51368999-178.13147699 59.51369s-132.236715-23.367213-178.131477-59.51369c-16.48607001-12.98406-19.31225399-36.88374199-6.328193-53.369813s36.88374199-19.31225399 53.369813-6.328193c26.418672 20.827743 78.72354601 43.211936 131.11033799 43.211936s104.69166601-22.404672 131.11033801-43.211936zM1024 442.30087112c0-70.69554599-57.30189401-127.99744-127.99744-127.99744-48.10655801 0-89.98732 26.562029-111.859523 65.821404-65.780444-36.00312-145.958041-59.247455-233.283014-64.613108l76.388872-171.51656999 146.183316 42.208436c13.147897 37.334293 48.72094599 64.12159801 90.560749 64.12159799 53.02166 0 96.00832-42.98666 96.00832-96.00832s-42.98666-96.00832-96.00832-96.00832c-36.556069 0-68.340393 20.438631-84.560229 50.52315001l-162.894662-47.02114c-18.226835-5.263255-37.539089 3.727285-45.25989501 21.05301899l-103.77008499 233.01678c-85.133657 6.00052-163.263295 29.01958-227.63064701 64.244475-21.872203-39.259375-63.773445-65.800924-111.88000199-65.800924-70.69554599 0-127.99744 57.30189401-127.99744 127.99744 0 52.30487399 31.395212 97.257575 76.368393 117.10229801-8.068959 24.02256-12.369673 49.11005801-12.369673 74.89386199 0 176.71838601 200.577108 319.9936 447.99104 319.9936s447.99104-143.27521399 447.99104-319.9936c0-25.783804-4.30071401-50.850823-12.369673-74.89386199 44.973181-19.844723 76.368393-64.797424 76.368393-117.10229801zM864.01344 118.31375112c19.88568201 0 36.00312 16.11743801 36.00312 36.00312s-16.11743801 36.00312-36.00312 36.00312-36.00312-16.11743801-36.00312-36.00312 16.11743801-36.00312 36.00312-36.00312zM64.0192 442.30087112c0-35.28633399 28.71238599-63.99872 63.99872-63.99872 25.51757001 0 47.574089 15.01154 57.854843 36.637987-33.443171 25.374213-61.172537 54.619068-81.672607 86.731065-23.531049-9.461571-40.180956-32.50110999-40.180956-59.390812zM512.01024 878.29087112c-205.451251 0-371.99128-109.238135-371.99128-243.99384s166.540029-243.99384 371.99128-243.99384c205.451251 0 371.99128 109.238135 371.99128 243.99384s-166.540029 243.99384-371.99128 243.99384zM919.820324 501.69168312c-20.50007001-32.11199801-48.208956-61.377332-81.672607-86.731065 10.28075399-21.646927 32.337273-36.637987 57.854843-36.637987 35.28633399 0 63.99872 28.71238599 63.99872 63.99872 0 26.869223-16.649907 49.90876201-40.180956 59.390812z"  /></svg>