<svg t="1578821382153" class="icon" viewBox="0 0 1024 1024" version="1.1" xmlns="http://www.w3.org/2000/svg" p-id="1064" width="200" height="200"><path d="M233.330828 232.23174558c119.17313772-117.74563715 312.38492185-117.74563715 431.55890333 0 110.03308484 108.71098132 118.38308039 279.7370571 25.24054311 398.00799453l48.72305979 48.16065921c7.97815311-2.71587717 16.49341161-1.48820938 22.08284006 4.05990335l113.5828655 112.21185746c8.34915179 8.25724567 7.09450214 22.9226457-2.8305497 32.71363274l-44.96164124 44.42537961c-9.93011106 9.81459558-24.75065643 11.06671564-33.12594718 2.80525452L680.01719406 762.42733514c-5.59027222-5.54305435-6.84492187-13.96556295-4.08604229-21.85433871l-50.06202677-49.41615179c-119.16470599 83.88949769-285.62834372 73.07995193-392.54335537-32.54584022C114.16612199 540.87295527 114.16612199 349.96895098 233.330828 232.23174558L233.330828 232.23174558zM296.26818807 596.43334812c84.4131113 83.40382727 221.28287613 83.40382727 305.68334025 0 84.42154385-83.39876807 84.42154385-218.6133739 0-302.02900545-84.40805291-83.39961099-221.27022893-83.38612006-305.68334025 1e-8C211.86013516 377.8073262 211.86013516 513.03458005 296.26818807 596.43334812L296.26818807 596.43334812zM560.6265155 330.47719714c6.57594772 6.49078665 6.57594772 16.98161161 0 23.47239825-6.55571173 6.47645279-17.17638602 6.4840416-23.75233373 1e-8l0.02192266-0.02192267c-50.37653211-49.56539502-131.69770917-49.56539502-182.03629806 0.02192267-6.54728 6.47645279-17.19746494 6.47645279-23.74474494 0-6.55486798-6.48319785-6.54390665-16.98161161 0-23.45469187C394.50689459 267.87036377 497.22709436 267.87036377 560.6265155 330.47719714L560.6265155 330.47719714z" fill="currentColor" p-id="1065"></path></svg>