<?xml version="1.0" standalone="no"?><!DOCTYPE svg PUBLIC "-//W3C//DTD SVG 1.1//EN" "http://www.w3.org/Graphics/SVG/1.1/DTD/svg11.dtd"><svg class="icon" width="200px" height="170.67px" viewBox="0 0 1200 1024" version="1.1" xmlns="http://www.w3.org/2000/svg"><path fill="#ffffff" d="M675.46754059 116.4921875H171.41731796C152.86235089 116.4921875 137.82552083 131.38588159 137.82552083 149.75251123v230.13281224h472.68833717c9.83119408 0 19.22544628 4.00781275 25.98297998 11.07421875l109.70256663 114.81780128c2.44084789 2.5613843 2.45591503 6.55412913 0.02260034 9.12304738L636.51190514 630.82561403C629.75437142 637.96735498 622.32635774 643.83593775 612.43489583 643.83593775H137.82552083v230.41155102C137.82552083 892.61411841 152.86235089 907.5078125 171.41731796 907.5078125h503.95228731c11.10435305 0 21.74916309-4.36941968 29.59905153-12.14397314l340.48325931-337.3869978a66.67131663 66.67131663 0 0 0-0.20340459-95.09514528L704.94605647 128.515625A42.08203125 42.08203125 0 0 0 675.46754059 116.4921875z"  /></svg>