<?xml version="1.0" standalone="no"?><!DOCTYPE svg PUBLIC "-//W3C//DTD SVG 1.1//EN" "http://www.w3.org/Graphics/SVG/1.1/DTD/svg11.dtd"><svg class="icon" width="200px" height="200.00px" viewBox="0 0 1024 1024" version="1.1" xmlns="http://www.w3.org/2000/svg"><path fill="#ffffff" d="M707.28114687 355.35170938c3.17530313 0 5.82138938 0 8.99669251 0C686.11245875 222.51819219 545.86990062 121.96692406 377.04961438 121.96692406 186.53142219 121.96692406 32 250.03748656 32 407.74421187c0 93.14222719 53.45093719 175.70011031 136.53803719 227.56339594l-34.39911844 104.78500594 123.30760781-64.56449813c37.04520375 11.64277875 77.79492844 17.46416719 119.60308688 17.46416719 8.9966925 0 17.993385-0.52921688 26.46085968-1.05843468-7.40904094-22.75633969-11.64277875-47.10033094-11.64277875-71.44432219C391.86769531 474.42557844 533.16868813 355.35170938 707.28114687 355.35170938zM495.06504969 262.20948219c24.87320812 0 44.98346156 20.63947125 44.98346156 45.51267937 0 25.40242594-20.11025344 45.51267937-44.98346156 45.51267938S450.08158719 333.12458656 450.08158719 307.72216062C450.08158719 282.8489525 470.19184156 262.20948219 495.06504969 262.20948219zM256.91730969 353.23484c-24.87320812 0-44.98346156-20.63947125-44.98346157-45.51267937 0-25.40242594 20.11025344-45.51267937 44.98346157-45.51267938s44.98346156 20.63947125 44.98346156 45.51267938C301.90077219 333.12458656 281.79051781 353.23484 256.91730969 353.23484z"  /><path fill="#ffffff" d="M992 621.01874281c0-132.83351719-127.54134469-240.79382625-285.24807094-240.79382625-157.17750844 0-285.24807094 107.96030906-285.24807094 240.79382625s127.54134469 240.79382625 285.24807094 240.79382625c33.34068375 0 65.62293281-4.76295469 95.78831344-13.75964719l95.78831344 53.98015407-25.93164282-84.67475157C944.89966906 773.43329656 992 701.98897437 992 621.01874281zM614.13891969 580.79823594c-20.63947125 0-37.57442156-15.34729875-37.57442156-33.86990063 0-18.52260187 16.93495031-33.86990062 37.57442156-33.86990062s37.57442156 15.34729875 37.57442156 33.86990062C651.71334031 565.98015406 634.77839 580.79823594 614.13891969 580.79823594zM800.95259094 580.79823594c-20.63947125 0-37.57442156-15.34729875-37.57442157-33.86990063 0-18.52260187 16.93495031-33.86990062 37.57442157-33.86990062s37.57442156 15.34729875 37.57442156 33.86990062C838.5270125 565.98015406 821.59206219 580.79823594 800.95259094 580.79823594z"  /></svg>