<?xml version="1.0" standalone="no"?><!DOCTYPE svg PUBLIC "-//W3C//DTD SVG 1.1//EN" "http://www.w3.org/Graphics/SVG/1.1/DTD/svg11.dtd"><svg class="icon" width="200px" height="200.00px" viewBox="0 0 1024 1024" version="1.1" xmlns="http://www.w3.org/2000/svg"><path fill="#ffffff" d="M571.96088889 191.26044445V843.09333333h68.26666666l28.672 81.23733334L789.95911111 843.09333333h149.61777778V191.26044445H571.96088889z m281.82755556 565.47555555h-68.1528889l-85.4471111 57.344-20.25244445-57.344h-20.48V280.23466667h194.21866667v476.50133333zM528.04266667 483.44177778H376.94577778c2.38933333-51.08622222 4.89244445-118.67022222 7.50933333-196.72177778h148.93511111l-0.11377777-9.216c0-0.68266667-0.22755555-16.72533333-2.6168889-33.10933333-2.38933333-17.06666667-7.50933333-39.70844445-23.89333333-39.70844445H256.91022222c5.00622222-23.43822222 17.86311111-79.30311111 33.45066667-106.72355555l7.28177778-12.74311112-14.67733334-0.79644444c-0.91022222 0-22.30044445-1.024-47.104 12.06044444-40.61866667 21.61777778-58.82311111 64.17066667-66.78755555 96.02844445-20.93511111 83.17155555-50.74488889 140.97066667-63.37422223 165.66044445-3.75466667 7.28177778-6.03022222 11.60533333-7.05422222 14.56355555-2.048 5.57511111-0.91022222 11.15022222 3.18577778 14.79111111 11.94666667 10.80888889 43.46311111-3.29955555 43.80444444-3.41333333 0.68266667-0.34133333 1.47911111-0.68266667 2.50311112-1.13777778 15.81511111-7.168 62.69155555-28.44444445 79.41688888-96.14222222h64.512c0.79644445 36.63644445 3.52711111 157.46844445 3.29955556 196.72177777h-160.42666666l-2.38933334 1.70666667c-26.28266667 19.22844445-34.70222222 71.90755555-35.04355556 74.18311111l-1.59288888 10.46755556h190.00888888c-13.99466667 89.088-30.15111111 129.024-38.68444444 144.95288889-4.20977778 7.96444445-8.30577778 15.92888889-12.17422222 23.66577777-24.23466667 48.01422222-49.37955555 97.62133333-143.70133334 174.76266667-4.096 3.18577778-7.96444445 9.10222222-5.46133333 15.58755556 2.73066667 7.168 10.58133333 10.35377778 27.98933333 10.35377777 6.144 0 13.42577778-0.34133333 22.0728889-1.13777777 56.77511111-5.00622222 114.688-20.48 153.71377777-99.66933333 19.34222222-39.936 36.06755555-81.57866667 49.94844445-123.904L494.93333333 896.56888889l5.68888889-13.65333334c0.91022222-2.16177778 21.61777778-52.67911111 5.80266667-109.11288888l-0.56888889-2.048-122.99377778-139.94666667-25.03111111 18.88711111c7.28177778-29.696 12.06044445-56.77511111 14.22222222-80.896h180.56533334v-9.10222222c0-45.62488889-21.04888889-72.704-21.84533334-73.84177778l-2.73066666-3.41333333z"  /></svg>